<?xml version="1.0" standalone="no"?>
<svg xmlns:xlink="http://www.w3.org/1999/xlink" id="wave" style="transform:rotate(180deg); transition: 0.3s" viewBox="0 0 1440 490" version="1.1" xmlns="http://www.w3.org/2000/svg"><defs><linearGradient id="sw-gradient-0" x1="0" x2="0" y1="1" y2="0"><stop stop-color="rgba(243, 106, 62, 1)" offset="0%"/><stop stop-color="rgba(255, 179, 11, 1)" offset="100%"/></linearGradient></defs><path style="transform:translate(0, 0px); opacity:1" fill="url(#sw-gradient-0)" d="M0,392L40,392C80,392,160,392,240,326.7C320,261,400,131,480,98C560,65,640,131,720,147C800,163,880,131,960,114.3C1040,98,1120,98,1200,155.2C1280,212,1360,327,1440,367.5C1520,408,1600,376,1680,310.3C1760,245,1840,147,1920,114.3C2000,82,2080,114,2160,130.7C2240,147,2320,147,2400,163.3C2480,180,2560,212,2640,245C2720,278,2800,310,2880,343C2960,376,3040,408,3120,424.7C3200,441,3280,441,3360,392C3440,343,3520,245,3600,187.8C3680,131,3760,114,3840,98C3920,82,4000,65,4080,122.5C4160,180,4240,310,4320,351.2C4400,392,4480,343,4560,334.8C4640,327,4720,359,4800,383.8C4880,408,4960,425,5040,416.5C5120,408,5200,376,5280,334.8C5360,294,5440,245,5520,187.8C5600,131,5680,65,5720,32.7L5760,0L5760,490L5720,490C5680,490,5600,490,5520,490C5440,490,5360,490,5280,490C5200,490,5120,490,5040,490C4960,490,4880,490,4800,490C4720,490,4640,490,4560,490C4480,490,4400,490,4320,490C4240,490,4160,490,4080,490C4000,490,3920,490,3840,490C3760,490,3680,490,3600,490C3520,490,3440,490,3360,490C3280,490,3200,490,3120,490C3040,490,2960,490,2880,490C2800,490,2720,490,2640,490C2560,490,2480,490,2400,490C2320,490,2240,490,2160,490C2080,490,2000,490,1920,490C1840,490,1760,490,1680,490C1600,490,1520,490,1440,490C1360,490,1280,490,1200,490C1120,490,1040,490,960,490C880,490,800,490,720,490C640,490,560,490,480,490C400,490,320,490,240,490C160,490,80,490,40,490L0,490Z"/><defs><linearGradient id="sw-gradient-1" x1="0" x2="0" y1="1" y2="0"><stop stop-color="rgba(243, 106, 62, 1)" offset="0%"/><stop stop-color="rgba(255, 179, 11, 1)" offset="100%"/></linearGradient></defs><path style="transform:translate(0, 50px); opacity:0.9" fill="url(#sw-gradient-1)" d="M0,245L40,228.7C80,212,160,180,240,204.2C320,229,400,310,480,302.2C560,294,640,196,720,138.8C800,82,880,65,960,89.8C1040,114,1120,180,1200,204.2C1280,229,1360,212,1440,204.2C1520,196,1600,196,1680,204.2C1760,212,1840,229,1920,253.2C2000,278,2080,310,2160,334.8C2240,359,2320,376,2400,383.8C2480,392,2560,392,2640,334.8C2720,278,2800,163,2880,106.2C2960,49,3040,49,3120,57.2C3200,65,3280,82,3360,147C3440,212,3520,327,3600,367.5C3680,408,3760,376,3840,359.3C3920,343,4000,343,4080,285.8C4160,229,4240,114,4320,122.5C4400,131,4480,261,4560,310.3C4640,359,4720,327,4800,294C4880,261,4960,229,5040,204.2C5120,180,5200,163,5280,196C5360,229,5440,310,5520,343C5600,376,5680,359,5720,351.2L5760,343L5760,490L5720,490C5680,490,5600,490,5520,490C5440,490,5360,490,5280,490C5200,490,5120,490,5040,490C4960,490,4880,490,4800,490C4720,490,4640,490,4560,490C4480,490,4400,490,4320,490C4240,490,4160,490,4080,490C4000,490,3920,490,3840,490C3760,490,3680,490,3600,490C3520,490,3440,490,3360,490C3280,490,3200,490,3120,490C3040,490,2960,490,2880,490C2800,490,2720,490,2640,490C2560,490,2480,490,2400,490C2320,490,2240,490,2160,490C2080,490,2000,490,1920,490C1840,490,1760,490,1680,490C1600,490,1520,490,1440,490C1360,490,1280,490,1200,490C1120,490,1040,490,960,490C880,490,800,490,720,490C640,490,560,490,480,490C400,490,320,490,240,490C160,490,80,490,40,490L0,490Z"/></svg>