<svg id="visual" viewBox="0 0 900 600" width="900" height="600" xmlns="http://www.w3.org/2000/svg" xmlns:xlink="http://www.w3.org/1999/xlink" version="1.1"><rect x="0" y="0" width="900" height="600" fill="#FFF"></rect><path d="M570 600L584 593.3C598 586.7 626 573.3 632 560C638 546.7 622 533.3 618.8 520C615.7 506.7 625.3 493.3 629.3 480C633.3 466.7 631.7 453.3 632.5 440C633.3 426.7 636.7 413.3 642.5 400C648.3 386.7 656.7 373.3 652.5 360C648.3 346.7 631.7 333.3 615.8 320C600 306.7 585 293.3 597.8 280C610.7 266.7 651.3 253.3 662.2 240C673 226.7 654 213.3 639.8 200C625.7 186.7 616.3 173.3 628.7 160C641 146.7 675 133.3 688.8 120C702.7 106.7 696.3 93.3 690.7 80C685 66.7 680 53.3 674 40C668 26.7 661 13.3 657.5 6.7L654 0L900 0L900 6.7C900 13.3 900 26.7 900 40C900 53.3 900 66.7 900 80C900 93.3 900 106.7 900 120C900 133.3 900 146.7 900 160C900 173.3 900 186.7 900 200C900 213.3 900 226.7 900 240C900 253.3 900 266.7 900 280C900 293.3 900 306.7 900 320C900 333.3 900 346.7 900 360C900 373.3 900 386.7 900 400C900 413.3 900 426.7 900 440C900 453.3 900 466.7 900 480C900 493.3 900 506.7 900 520C900 533.3 900 546.7 900 560C900 573.3 900 586.7 900 593.3L900 600Z" fill="#ffcd9d"></path><path d="M697 600L702.2 593.3C707.3 586.7 717.7 573.3 713.7 560C709.7 546.7 691.3 533.3 671.7 520C652 506.7 631 493.3 622.5 480C614 466.7 618 453.3 636 440C654 426.7 686 413.3 691.3 400C696.7 386.7 675.3 373.3 656.8 360C638.3 346.7 622.7 333.3 634 320C645.3 306.7 683.7 293.3 688.5 280C693.3 266.7 664.7 253.3 663 240C661.3 226.7 686.7 213.3 685.2 200C683.7 186.7 655.3 173.3 647.7 160C640 146.7 653 133.3 669.2 120C685.3 106.7 704.7 93.3 694.8 80C685 66.7 646 53.3 631.3 40C616.7 26.7 626.3 13.3 631.2 6.7L636 0L900 0L900 6.7C900 13.3 900 26.7 900 40C900 53.3 900 66.7 900 80C900 93.3 900 106.7 900 120C900 133.3 900 146.7 900 160C900 173.3 900 186.7 900 200C900 213.3 900 226.7 900 240C900 253.3 900 266.7 900 280C900 293.3 900 306.7 900 320C900 333.3 900 346.7 900 360C900 373.3 900 386.7 900 400C900 413.3 900 426.7 900 440C900 453.3 900 466.7 900 480C900 493.3 900 506.7 900 520C900 533.3 900 546.7 900 560C900 573.3 900 586.7 900 593.3L900 600Z" fill="#ffc58f"></path><path d="M631 600L648.7 593.3C666.3 586.7 701.7 573.3 703.8 560C706 546.7 675 533.3 677.2 520C679.3 506.7 714.7 493.3 724.8 480C735 466.7 720 453.3 722 440C724 426.7 743 413.3 750.3 400C757.7 386.7 753.3 373.3 733.3 360C713.3 346.7 677.7 333.3 662 320C646.3 306.7 650.7 293.3 667.5 280C684.3 266.7 713.7 253.3 714.2 240C714.7 226.7 686.3 213.3 673.5 200C660.7 186.7 663.3 173.3 662.8 160C662.3 146.7 658.7 133.3 673.3 120C688 106.7 721 93.3 732.2 80C743.3 66.7 732.7 53.3 727.8 40C723 26.7 724 13.3 724.5 6.7L725 0L900 0L900 6.7C900 13.3 900 26.7 900 40C900 53.3 900 66.7 900 80C900 93.3 900 106.7 900 120C900 133.3 900 146.7 900 160C900 173.3 900 186.7 900 200C900 213.3 900 226.7 900 240C900 253.3 900 266.7 900 280C900 293.3 900 306.7 900 320C900 333.3 900 346.7 900 360C900 373.3 900 386.7 900 400C900 413.3 900 426.7 900 440C900 453.3 900 466.7 900 480C900 493.3 900 506.7 900 520C900 533.3 900 546.7 900 560C900 573.3 900 586.7 900 593.3L900 600Z" fill="#ffbe80"></path><path d="M721 600L734.3 593.3C747.7 586.7 774.3 573.3 786.3 560C798.3 546.7 795.7 533.3 785.3 520C775 506.7 757 493.3 756 480C755 466.7 771 453.3 777.3 440C783.7 426.7 780.3 413.3 782 400C783.7 386.7 790.3 373.3 790.5 360C790.7 346.7 784.3 333.3 771.8 320C759.3 306.7 740.7 293.3 741.3 280C742 266.7 762 253.3 757 240C752 226.7 722 213.3 705 200C688 186.7 684 173.3 686 160C688 146.7 696 133.3 696 120C696 106.7 688 93.3 689.7 80C691.3 66.7 702.7 53.3 706.7 40C710.7 26.7 707.3 13.3 705.7 6.7L704 0L900 0L900 6.7C900 13.3 900 26.7 900 40C900 53.3 900 66.7 900 80C900 93.3 900 106.7 900 120C900 133.3 900 146.7 900 160C900 173.3 900 186.7 900 200C900 213.3 900 226.7 900 240C900 253.3 900 266.7 900 280C900 293.3 900 306.7 900 320C900 333.3 900 346.7 900 360C900 373.3 900 386.7 900 400C900 413.3 900 426.7 900 440C900 453.3 900 466.7 900 480C900 493.3 900 506.7 900 520C900 533.3 900 546.7 900 560C900 573.3 900 586.7 900 593.3L900 600Z" fill="#ffb672"></path><path d="M724 600L729.8 593.3C735.7 586.7 747.3 573.3 765.8 560C784.3 546.7 809.7 533.3 809.8 520C810 506.7 785 493.3 779 480C773 466.7 786 453.3 793.3 440C800.7 426.7 802.3 413.3 800.8 400C799.3 386.7 794.7 373.3 781.2 360C767.7 346.7 745.3 333.3 741.2 320C737 306.7 751 293.3 757.7 280C764.3 266.7 763.7 253.3 765.2 240C766.7 226.7 770.3 213.3 781.5 200C792.7 186.7 811.3 173.3 817.8 160C824.3 146.7 818.7 133.3 806.3 120C794 106.7 775 93.3 770.7 80C766.3 66.7 776.7 53.3 771.5 40C766.3 26.7 745.7 13.3 735.3 6.7L725 0L900 0L900 6.7C900 13.3 900 26.7 900 40C900 53.3 900 66.7 900 80C900 93.3 900 106.7 900 120C900 133.3 900 146.7 900 160C900 173.3 900 186.7 900 200C900 213.3 900 226.7 900 240C900 253.3 900 266.7 900 280C900 293.3 900 306.7 900 320C900 333.3 900 346.7 900 360C900 373.3 900 386.7 900 400C900 413.3 900 426.7 900 440C900 453.3 900 466.7 900 480C900 493.3 900 506.7 900 520C900 533.3 900 546.7 900 560C900 573.3 900 586.7 900 593.3L900 600Z" fill="#f7ac66"></path><path d="M776 600L789.5 593.3C803 586.7 830 573.3 837.8 560C845.7 546.7 834.3 533.3 833.3 520C832.3 506.7 841.7 493.3 842.5 480C843.3 466.7 835.7 453.3 825.8 440C816 426.7 804 413.3 795 400C786 386.7 780 373.3 786.3 360C792.7 346.7 811.3 333.3 815.5 320C819.7 306.7 809.3 293.3 811.7 280C814 266.7 829 253.3 836.2 240C843.3 226.7 842.7 213.3 830.3 200C818 186.7 794 173.3 787.8 160C781.7 146.7 793.3 133.3 801.2 120C809 106.7 813 93.3 812.2 80C811.3 66.7 805.7 53.3 805.5 40C805.3 26.7 810.7 13.3 813.3 6.7L816 0L900 0L900 6.7C900 13.3 900 26.7 900 40C900 53.3 900 66.7 900 80C900 93.3 900 106.7 900 120C900 133.3 900 146.7 900 160C900 173.3 900 186.7 900 200C900 213.3 900 226.7 900 240C900 253.3 900 266.7 900 280C900 293.3 900 306.7 900 320C900 333.3 900 346.7 900 360C900 373.3 900 386.7 900 400C900 413.3 900 426.7 900 440C900 453.3 900 466.7 900 480C900 493.3 900 506.7 900 520C900 533.3 900 546.7 900 560C900 573.3 900 586.7 900 593.3L900 600Z" fill="#f0a15b"></path><path d="M881 600L879.3 593.3C877.7 586.7 874.3 573.3 863 560C851.7 546.7 832.3 533.3 829.7 520C827 506.7 841 493.3 854.5 480C868 466.7 881 453.3 882.7 440C884.3 426.7 874.7 413.3 869.7 400C864.7 386.7 864.3 373.3 857.3 360C850.3 346.7 836.7 333.3 840.5 320C844.3 306.7 865.7 293.3 870.7 280C875.7 266.7 864.3 253.3 861.8 240C859.3 226.7 865.7 213.3 861.5 200C857.3 186.7 842.7 173.3 835.3 160C828 146.7 828 133.3 827.7 120C827.3 106.7 826.7 93.3 824.8 80C823 66.7 820 53.3 824 40C828 26.7 839 13.3 844.5 6.7L850 0L900 0L900 6.7C900 13.3 900 26.7 900 40C900 53.3 900 66.7 900 80C900 93.3 900 106.7 900 120C900 133.3 900 146.7 900 160C900 173.3 900 186.7 900 200C900 213.3 900 226.7 900 240C900 253.3 900 266.7 900 280C900 293.3 900 306.7 900 320C900 333.3 900 346.7 900 360C900 373.3 900 386.7 900 400C900 413.3 900 426.7 900 440C900 453.3 900 466.7 900 480C900 493.3 900 506.7 900 520C900 533.3 900 546.7 900 560C900 573.3 900 586.7 900 593.3L900 600Z" fill="#e8974f"></path></svg>