<svg id="visual" viewBox="0 0 900 600" width="900" height="600" xmlns="http://www.w3.org/2000/svg" xmlns:xlink="http://www.w3.org/1999/xlink" version="1.1"><rect x="0" y="0" width="900" height="600" fill="#e6e6e6"></rect><defs><linearGradient id="grad1_0" x1="33.3%" y1="0%" x2="100%" y2="100%"><stop offset="20%" stop-color="#ffb672" stop-opacity="1"></stop><stop offset="80%" stop-color="#ffb672" stop-opacity="1"></stop></linearGradient></defs><defs><linearGradient id="grad1_1" x1="33.3%" y1="0%" x2="100%" y2="100%"><stop offset="20%" stop-color="#ffb672" stop-opacity="1"></stop><stop offset="80%" stop-color="#fdc089" stop-opacity="1"></stop></linearGradient></defs><defs><linearGradient id="grad1_2" x1="33.3%" y1="0%" x2="100%" y2="100%"><stop offset="20%" stop-color="#f9c9a0" stop-opacity="1"></stop><stop offset="80%" stop-color="#fdc089" stop-opacity="1"></stop></linearGradient></defs><defs><linearGradient id="grad1_3" x1="33.3%" y1="0%" x2="100%" y2="100%"><stop offset="20%" stop-color="#f9c9a0" stop-opacity="1"></stop><stop offset="80%" stop-color="#f5d3b7" stop-opacity="1"></stop></linearGradient></defs><defs><linearGradient id="grad1_4" x1="33.3%" y1="0%" x2="100%" y2="100%"><stop offset="20%" stop-color="#eedccf" stop-opacity="1"></stop><stop offset="80%" stop-color="#f5d3b7" stop-opacity="1"></stop></linearGradient></defs><defs><linearGradient id="grad1_5" x1="33.3%" y1="0%" x2="100%" y2="100%"><stop offset="20%" stop-color="#eedccf" stop-opacity="1"></stop><stop offset="80%" stop-color="#e6e6e6" stop-opacity="1"></stop></linearGradient></defs><defs><linearGradient id="grad2_0" x1="0%" y1="0%" x2="66.7%" y2="100%"><stop offset="20%" stop-color="#ffb672" stop-opacity="1"></stop><stop offset="80%" stop-color="#ffb672" stop-opacity="1"></stop></linearGradient></defs><defs><linearGradient id="grad2_1" x1="0%" y1="0%" x2="66.7%" y2="100%"><stop offset="20%" stop-color="#fdc089" stop-opacity="1"></stop><stop offset="80%" stop-color="#ffb672" stop-opacity="1"></stop></linearGradient></defs><defs><linearGradient id="grad2_2" x1="0%" y1="0%" x2="66.7%" y2="100%"><stop offset="20%" stop-color="#fdc089" stop-opacity="1"></stop><stop offset="80%" stop-color="#f9c9a0" stop-opacity="1"></stop></linearGradient></defs><defs><linearGradient id="grad2_3" x1="0%" y1="0%" x2="66.7%" y2="100%"><stop offset="20%" stop-color="#f5d3b7" stop-opacity="1"></stop><stop offset="80%" stop-color="#f9c9a0" stop-opacity="1"></stop></linearGradient></defs><defs><linearGradient id="grad2_4" x1="0%" y1="0%" x2="66.7%" y2="100%"><stop offset="20%" stop-color="#f5d3b7" stop-opacity="1"></stop><stop offset="80%" stop-color="#eedccf" stop-opacity="1"></stop></linearGradient></defs><defs><linearGradient id="grad2_5" x1="0%" y1="0%" x2="66.7%" y2="100%"><stop offset="20%" stop-color="#e6e6e6" stop-opacity="1"></stop><stop offset="80%" stop-color="#eedccf" stop-opacity="1"></stop></linearGradient></defs><g transform="translate(900, 0)"><path d="M0 351.5C-35.8 322.5 -71.7 293.5 -116.3 280.9C-161 268.2 -214.5 271.9 -248.6 248.6C-282.7 225.3 -297.4 174.9 -311.3 129C-325.3 83 -338.4 41.5 -351.5 0L0 0Z" fill="#eae1da"></path><path d="M0 293C-29.9 268.8 -59.7 244.6 -96.9 234C-134.2 223.5 -178.7 226.6 -207.1 207.1C-235.6 187.7 -247.8 145.7 -259.5 107.5C-271.1 69.2 -282 34.6 -293 0L0 0Z" fill="#f2d8c3"></path><path d="M0 234.4C-23.9 215 -47.8 195.7 -77.6 187.2C-107.3 178.8 -143 181.3 -165.7 165.7C-188.5 150.2 -198.3 116.6 -207.6 86C-216.9 55.4 -225.6 27.7 -234.4 0L0 0Z" fill="#f7ceac"></path><path d="M0 175.8C-17.9 161.3 -35.8 146.8 -58.2 140.4C-80.5 134.1 -107.2 136 -124.3 124.3C-141.3 112.6 -148.7 87.4 -155.7 64.5C-162.6 41.5 -169.2 20.8 -175.8 0L0 0Z" fill="#fbc495"></path><path d="M0 117.2C-11.9 107.5 -23.9 97.8 -38.8 93.6C-53.7 89.4 -71.5 90.6 -82.9 82.9C-94.2 75.1 -99.1 58.3 -103.8 43C-108.4 27.7 -112.8 13.8 -117.2 0L0 0Z" fill="#febb7e"></path><path d="M0 58.6C-6 53.8 -11.9 48.9 -19.4 46.8C-26.8 44.7 -35.7 45.3 -41.4 41.4C-47.1 37.5 -49.6 29.1 -51.9 21.5C-54.2 13.8 -56.4 6.9 -58.6 0L0 0Z" fill="#ffb672"></path></g><g transform="translate(0, 600)"><path d="M0 -351.5C51.2 -352.1 102.4 -352.8 134.5 -324.8C166.6 -296.8 179.6 -240.2 203.6 -203.6C227.7 -167 262.7 -150.4 289.2 -119.8C315.7 -89.2 333.6 -44.6 351.5 0L0 0Z" fill="#eae1da"></path><path d="M0 -293C42.7 -293.5 85.4 -294 112.1 -270.7C138.9 -247.3 149.7 -200.2 169.7 -169.7C189.7 -139.2 218.9 -125.3 241 -99.8C263 -74.3 278 -37.2 293 0L0 0Z" fill="#f2d8c3"></path><path d="M0 -234.4C34.1 -234.8 68.3 -235.2 89.7 -216.5C111.1 -197.9 119.8 -160.2 135.8 -135.8C151.8 -111.4 175.1 -100.3 192.8 -79.9C210.4 -59.4 222.4 -29.7 234.4 0L0 0Z" fill="#f7ceac"></path><path d="M0 -175.8C25.6 -176.1 51.2 -176.4 67.3 -162.4C83.3 -148.4 89.8 -120.1 101.8 -101.8C113.8 -83.5 131.3 -75.2 144.6 -59.9C157.8 -44.6 166.8 -22.3 175.8 0L0 0Z" fill="#fbc495"></path><path d="M0 -117.2C17.1 -117.4 34.1 -117.6 44.8 -108.3C55.5 -98.9 59.9 -80.1 67.9 -67.9C75.9 -55.7 87.6 -50.1 96.4 -39.9C105.2 -29.7 111.2 -14.9 117.2 0L0 0Z" fill="#febb7e"></path><path d="M0 -58.6C8.5 -58.7 17.1 -58.8 22.4 -54.1C27.8 -49.5 29.9 -40 33.9 -33.9C37.9 -27.8 43.8 -25.1 48.2 -20C52.6 -14.9 55.6 -7.4 58.6 0L0 0Z" fill="#ffb672"></path></g></svg>