<svg id="visual" viewBox="0 0 900 600" width="900" height="600" xmlns="http://www.w3.org/2000/svg" xmlns:xlink="http://www.w3.org/1999/xlink" version="1.1"><rect x="0" y="0" width="900" height="600" fill="#e6e6e6"></rect><g transform="translate(-76.40375721781706 596.5119459379121)"><path d="M140.2 -242.4C193.8 -183.6 257.9 -165.3 311.9 -120.8C365.8 -76.3 409.6 -5.6 414.3 69.6C419.1 144.7 384.9 224.3 321.4 254.5C257.9 284.8 165.2 265.7 82.1 299C-1 332.3 -74.5 418 -116 402.5C-157.6 386.9 -167.2 270.1 -175 190.8C-182.9 111.5 -188.9 69.8 -211.2 20.5C-233.6 -28.7 -272.4 -85.4 -259.3 -120.3C-246.3 -155.3 -181.6 -168.5 -129.7 -228.2C-77.9 -287.8 -38.9 -393.9 2.2 -397.3C43.3 -400.6 86.5 -301.3 140.2 -242.4" fill="#ffb672"></path></g></svg>